<?xml version="1.0" encoding="UTF-8" standalone="no"?><!DOCTYPE svg PUBLIC "-//W3C//DTD SVG 1.1//EN" "http://www.w3.org/Graphics/SVG/1.1/DTD/svg11.dtd"><svg width="100%" height="100%" viewBox="0 0 472 286" version="1.1" xmlns="http://www.w3.org/2000/svg" xmlns:xlink="http://www.w3.org/1999/xlink" xml:space="preserve" xmlns:serif="http://www.serif.com/" style="fill-rule:evenodd;clip-rule:evenodd;stroke-linecap:round;stroke-miterlimit:1.5;"><g id="X-logo"><g><g><path d="M69.27,247.715l24.942,0l114.026,-198.367" style="fill:none;stroke:#ff8b00;stroke-width:21px;"/><path d="M230.658,9.546l-42.515,26.336l42.767,23.674l-0.252,-50.01Z" style="fill:#ff8b00;"/><path d="M230.91,59.556l-42.767,-23.674l42.515,-26.336l0.252,50.01Zm-23.984,-24.134l14.402,7.972l-0.085,-16.841l-14.317,8.869Z" style="fill:#ff8b00;"/></g><g><path d="M47.026,271.882c14.408,0 26.105,-11.389 26.105,-25.417c0,-14.027 -11.697,-25.416 -26.105,-25.416c-14.407,0 -26.104,11.389 -26.104,25.416c0,14.028 11.697,25.417 26.104,25.417Zm0,-14.698c6.076,0 11.009,-4.803 11.009,-10.719c0,-5.915 -4.933,-10.718 -11.009,-10.718c-6.075,0 -11.008,4.803 -11.008,10.718c0,5.916 4.933,10.719 11.008,10.719Z" style="fill:#ff8b00;"/></g></g><g><g><path d="M69.27,33.712l24.942,0l114.026,198.368" style="fill:none;stroke:#ff8b00;stroke-width:21px;"/><path d="M230.658,271.882l-42.515,-26.337l42.767,-23.674l-0.252,50.011Z" style="fill:#ff8b00;"/><path d="M230.658,271.882l-42.515,-26.337l42.767,-23.674l-0.252,50.011Zm-23.732,-25.876l14.317,8.869l0.085,-16.842l-14.402,7.973Z" style="fill:#ff8b00;"/></g><g><path d="M47.026,9.546c14.408,0 26.105,11.388 26.105,25.416c0,14.027 -11.697,25.416 -26.105,25.416c-14.407,0 -26.104,-11.389 -26.104,-25.416c0,-14.028 11.697,-25.416 26.104,-25.416Zm0,14.697c6.076,0 11.009,4.803 11.009,10.719c0,5.916 -4.933,10.718 -11.009,10.718c-6.075,0 -11.008,-4.802 -11.008,-10.718c0,-5.916 4.933,-10.719 11.008,-10.719Z" style="fill:#ff8b00;"/></g></g></g><text id="Text" x="210.462px" y="205.914px" style="font-family:'AmazonEmber-Medium', 'Amazon Ember', sans-serif;font-weight:500;font-size:192px;">fer</text></svg>